<?xml version="1.0" encoding="utf-8"?>
<!-- Generator: Adobe Illustrator 21.1.0, SVG Export Plug-In . SVG Version: 6.00 Build 0)  -->
<svg version="1.1" id="Слой_1" xmlns="http://www.w3.org/2000/svg" xmlns:xlink="http://www.w3.org/1999/xlink" x="0px" y="0px"
	 viewBox="0 0 33.8 33.8" style="enable-background:new 0 0 33.8 33.8;" xml:space="preserve">
<style type="text/css">
	.st0{clip-path:url(#SVGID_2_);fill:#F15B61;}
	.st1{clip-path:url(#SVGID_2_);fill:#A52831;}
	.st2{clip-path:url(#SVGID_2_);fill:#FFFFFF;}
</style>
<g>
	<defs>
		<rect id="SVGID_1_" width="33.8" height="33.8"/>
	</defs>
	<clipPath id="SVGID_2_">
		<use xlink:href="#SVGID_1_"  style="overflow:visible;"/>
	</clipPath>
	<path class="st0" d="M33.8,16.9c0,9.3-7.6,16.9-16.9,16.9S0,26.2,0,16.9S7.6,0,16.9,0S33.8,7.6,33.8,16.9"/>
	<path class="st1" d="M28.5,19.2c-1.5,5-6.1,8.6-11.6,8.6S6.7,24.2,5.2,19.2H28.5z"/>
	<path class="st2" d="M26,12c0,0.8-0.6,1.4-1.4,1.4c-0.8,0-1.4-0.6-1.4-1.4c0-0.8,0.6-1.4,1.4-1.4C25.4,10.6,26,11.2,26,12"/>
	<path class="st2" d="M10.8,12c0,0.8-0.6,1.4-1.4,1.4c-0.8,0-1.4-0.6-1.4-1.4c0-0.8,0.6-1.4,1.4-1.4C10.1,10.6,10.8,11.2,10.8,12"/>
	<path class="st2" d="M25.2,19.2L25.2,19.2c0,1.5-1.2,2.8-2.8,2.8H11.3c-1.5,0-2.8-1.2-2.8-2.8H25.2z"/>
</g>
</svg>
