<?xml version="1.0" encoding="iso-8859-1"?>
<!-- Generator: Adobe Illustrator 19.0.0, SVG Export Plug-In . SVG Version: 6.00 Build 0)  -->
<svg version="1.1" id="Capa_1" xmlns="http://www.w3.org/2000/svg" xmlns:xlink="http://www.w3.org/1999/xlink" x="0px" y="0px"
	 viewBox="0 0 512.001 512.001" style="fill:#1cec74;enable-background:new 0 0 512.001 512.001;" xml:space="preserve">
<g>
	<g>
		<path d="M497.001,482h-106v-91h106c5.634,0,10.792-3.157,13.356-8.173c2.564-5.017,2.101-11.046-1.198-15.613L439.633,271h26.368
			c5.532,0,10.615-3.045,13.226-7.922c2.609-4.877,2.324-10.795-0.745-15.398L414.028,151h21.973c5.671,0,10.856-3.198,13.403-8.265
			c2.546-5.067,2.017-11.137-1.367-15.687l-90-121C355.206,2.243,350.743,0,346.001,0s-9.205,2.243-12.036,6.048l-77.964,104.819
			L178.037,6.048C175.207,2.243,170.743,0,166.001,0s-9.206,2.243-12.036,6.048l-90,121c-3.385,4.55-3.914,10.62-1.367,15.687
			C65.144,147.802,70.33,151,76.001,151h21.973L33.52,247.68c-3.068,4.603-3.354,10.521-0.744,15.398
			c2.61,4.877,7.693,7.922,13.225,7.922h26.368L2.843,367.214c-3.3,4.566-3.763,10.596-1.199,15.613
			C4.209,387.843,9.367,391,15.001,391h106v91h-106c-8.284,0-15,6.716-15,15s6.716,15,15,15c14.916,0,474.382,0,482,0
			c8.284,0,15-6.716,15-15S505.285,482,497.001,482z M277.974,151l-21.973,32.959L234.028,151C248.003,151,263.999,151,277.974,151z
			 M44.347,361l69.525-96.214c3.3-4.566,3.763-10.596,1.199-15.613c-2.564-5.016-7.723-8.173-13.356-8.173H74.029l64.454-96.68
			c3.068-4.603,3.354-10.521,0.744-15.398S131.534,121,126.002,121h-20.149l60.148-80.866L226.15,121h-20.149
			c-5.532,0-10.615,3.045-13.225,7.922c-2.61,4.877-2.324,10.795,0.744,15.398l49.921,74.881c0.028,0.043,0.058,0.086,0.087,0.13
			L257.973,241h-27.686c-5.619,0-10.767,3.14-13.337,8.136c-2.571,4.996-2.134,11.01,1.131,15.582L286.854,361
			C210.51,361,120.834,361,44.347,361z M181.001,482h-30v-91h30V482z M301.001,482h-90v-91h90V482z M259.435,271h26.566
			c5.532,0,10.615-3.045,13.226-7.922c2.609-4.877,2.324-10.795-0.745-15.398l-24.453-36.679l44.454-66.68
			c3.068-4.603,3.354-10.521,0.745-15.398c-2.61-4.877-7.693-7.922-13.226-7.922h-20.149l60.148-80.867L406.149,121H386
			c-5.532,0-10.615,3.045-13.226,7.922c-2.609,4.877-2.323,10.795,0.745,15.398L437.973,241h-27.686
			c-5.634,0-10.792,3.157-13.356,8.173c-2.563,5.017-2.102,11.046,1.198,15.613L467.655,361c-10.071,0-121.175,0-143.935,0
			L259.435,271z M361.001,482h-30v-91h30V482z"/>
	</g>
</g>
<g>
</g>
<g>
</g>
<g>
</g>
<g>
</g>
<g>
</g>
<g>
</g>
<g>
</g>
<g>
</g>
<g>
</g>
<g>
</g>
<g>
</g>
<g>
</g>
<g>
</g>
<g>
</g>
<g>
</g>
</svg>
