<svg viewBox="0 0 512 512" xmlns="http://www.w3.org/2000/svg"><path d="m512 482h-76.308594c28.320313-12.546875 45.308594-28.09375 45.308594-45 0-25.207031-37.425781-47.453125-94.628906-61.054688-34.554688 10.601563-75.023438 16.054688-115.371094 16.054688-45.050781 0-90.296875-6.753906-127.222656-19.941406-67.34375 12.960937-112.777344 37.160156-112.777344 64.941406 0 16.90625 16.988281 32.453125 45.308594 45h-76.308594v30h512zm0 0"/><path d="m346 46c0-24.851562-33.578125-46-75-46s-75 21.148438-75 46 33.578125 46 75 46 75-21.148438 75-46zm0 0"/><path d="m121 152c0 33.136719 60.441406 60 135 60s135-26.863281 135-60c0-19.242188-20.742188-36.175781-52.433594-47.15625-18.050781 10.644531-41.21875 17.15625-67.566406 17.15625-31.011719 0-57.890625-8.773438-76.769531-23.058594-43.316407 9.988282-73.230469 29.871094-73.230469 53.058594zm0 0"/><path d="m91 287c0 41.421875 80.589844 75 180 75s180-33.578125 180-75c0-27.574219-35.820312-51.609375-89.027344-64.636719-30.039062 12.945313-68.0625 19.636719-105.972656 19.636719-32.8125 0-65.695312-5.035156-93.445312-14.761719-43.394532 13.695313-71.554688 35.332031-71.554688 59.761719zm0 0"/></svg>