<?xml version="1.0" encoding="iso-8859-1"?>
<!-- Generator: Adobe Illustrator 19.0.0, SVG Export Plug-In . SVG Version: 6.00 Build 0)  -->
<svg version="1.1" id="Capa_1" xmlns="http://www.w3.org/2000/svg" xmlns:xlink="http://www.w3.org/1999/xlink" x="0px" y="0px"
	 viewBox="0 0 512.033 512.033" style="fill:#fff;enable-background:new 0 0 512.033 512.033;" xml:space="preserve">
<g transform="translate(-1)">
	<g>
		<g>
			<path d="M12.617,148.899c1.411,4.682,6.201,7.477,10.971,6.4l55.159-10.606l42.642-9.362c4.628-0.626,7.957-4.763,7.579-9.417
				l-5.211-39.881c-2.377-18.286,16.741-29.486,36.745-32.521c63.474-10.247,128.17-10.389,191.689-0.421
				c13.815,2.386,27.429,5.751,33.335,14.162c4.645,7.917,6.022,17.333,3.84,26.249l-3.739,26.514
				c-1.09,3.786-0.884,7.828,0.585,11.483c2.331,3.081,9.673,4.48,14.053,5.321c6.784,1.298,12.005,2.597,17.234,3.895
				c4.928,1.225,9.856,2.459,16.274,3.657l49.527,9.481c4.609,1.436,9.532,1.525,14.19,0.256c3.127-1.637,4.352-6.217,5.879-13.019
				l0.32-1.39c1.051-4.635,2.441-9.234,3.822-13.824c3-8.18,4.691-16.783,5.01-25.49c-1.384-14.033-8.068-27.011-18.688-36.288
				C435.318,6.663,330.66,0.016,257.033,0.016C90.294,0.016,28.178,45.621,5.43,83.884c-4.404,7.531-5.584,16.52-3.273,24.933
				L12.617,148.899z"/>
			<path d="M430.747,411.445c-5.049,0-9.143-4.093-9.143-9.143c0-5.049,4.093-9.143,9.143-9.143h73.335L395.035,245.164
				c-3.454-4.667-8.914-7.424-14.72-7.433h-31.854c-4.61-0.001-8.498-3.435-9.07-8.009l-9.143-73.143
				c-0.052-0.376-0.076-0.755-0.073-1.134h-27.429v73.143c0,5.049-4.093,9.143-9.143,9.143h-73.143
				c-5.049,0-9.143-4.093-9.143-9.143v-73.143H183.89c0.003,0.379-0.021,0.758-0.073,1.134l-9.143,73.143
				c-0.572,4.575-4.46,8.008-9.07,8.009H133.75c-5.806,0.009-11.266,2.766-14.72,7.433L9.983,393.159h375.049
				c5.049,0,9.143,4.093,9.143,9.143c0,5.049-4.093,9.143-9.143,9.143h-384v73.143c0,15.148,12.28,27.429,27.429,27.429h457.143
				c15.148,0,27.429-12.28,27.429-27.429v-73.143H430.747z M348.525,340.588c-6.132,7.621-13.77,13.896-22.437,18.432
				c-9.887,5.297-20.45,9.222-31.397,11.666c-24.796,5.583-50.523,5.583-75.319,0c-10.947-2.444-21.51-6.369-31.397-11.666
				c-8.667-4.536-16.305-10.811-22.437-18.432c-12.121-14.571-12.121-35.715,0-50.286c6.132-7.621,13.77-13.896,22.437-18.432
				c9.887-5.297,20.45-9.222,31.397-11.666c24.8-5.55,50.519-5.55,75.319,0c3.195,0.727,5.756,3.109,6.714,6.242
				c0.958,3.133,0.166,6.54-2.076,8.929c-2.242,2.389-5.591,3.396-8.779,2.639c-22.073-4.928-44.962-4.928-67.035,0
				c-9.319,2.065-18.313,5.39-26.734,9.883c-6.439,3.343-12.136,7.951-16.75,13.55c-7.045,8.002-7.045,19.993,0,27.995
				c4.616,5.6,10.316,10.209,16.759,13.55c8.417,4.495,17.408,7.82,26.725,9.883c22.073,4.928,44.962,4.928,67.035,0
				c9.319-2.065,18.313-5.39,26.734-9.883c6.439-3.343,12.136-7.951,16.75-13.55c7.045-8.002,7.045-19.993,0-27.995
				c-2.075-2.582-2.591-6.085-1.348-9.156c1.243-3.071,4.049-5.229,7.336-5.642s6.54,0.985,8.503,3.653
				C360.646,304.873,360.646,326.017,348.525,340.588z"/>
		</g>
	</g>
</g>
<g>
</g>
<g>
</g>
<g>
</g>
<g>
</g>
<g>
</g>
<g>
</g>
<g>
</g>
<g>
</g>
<g>
</g>
<g>
</g>
<g>
</g>
<g>
</g>
<g>
</g>
<g>
</g>
<g>
</g>
</svg>
